<svg xmlns="http://www.w3.org/2000/svg" viewBox="0 0 300 300"><defs><style>.cls-1{fill:#f0ad82;}.cls-2{fill:#b05734;}.cls-3{fill:none;stroke:#b05734;stroke-linecap:round;}.cls-3,.cls-4{stroke-miterlimit:10;stroke-width:9px;}.cls-4{fill:#472422;stroke:#472422;}</style></defs><g id="Layer_5" data-name="Layer 5"><rect class="cls-1" width="300" height="300"/></g><g id="Layer_2" data-name="Layer 2"><path class="cls-1" d="M72.7,261.4a33.4,33.4,0,0,1-25.4-11.7,33.8,33.8,0,0,1-8-26.9,9.7,9.7,0,0,1,2.8-5.5l182-182,41.2,41.1L84.2,257.5a12.5,12.5,0,0,1-7.7,3.7l-3.8.2Z"/><path class="cls-2" d="M224.1,41.6l34.8,34.8L81.1,254.3a8.4,8.4,0,0,1-5.1,2.4,18.3,18.3,0,0,1-3.3.2,29.1,29.1,0,0,1-22-10.1,28.7,28.7,0,0,1-6.9-23.3,4.8,4.8,0,0,1,1.5-3L224.1,41.6m0-12.7L38.9,214.1a13.9,13.9,0,0,0-4,8.1h0a38.3,38.3,0,0,0,37.8,43.7l4.3-.2h0a17.3,17.3,0,0,0,10.4-5L271.7,76.4,224.1,28.9Z"/></g><g id="Layer_3" data-name="Layer 3"><line class="cls-3" x1="52.1" y1="248.6" x2="105.6" y2="195"/><line class="cls-3" x1="135.8" y1="163.8" x2="197.1" y2="102.5"/><line class="cls-3" x1="96.7" y1="181.7" x2="119.9" y2="158.5"/><line class="cls-3" x1="119.9" y1="204.9" x2="143.1" y2="181.7"/></g><g id="Layer_4" data-name="Layer 4"><path class="cls-4" d="M201,37.6l-10.8,9.6c-9,8.1-18.7,17.5-19.4,29.5a8.2,8.2,0,0,0,.5,3.8c1.4,3.3,5.6,4,8.9,5.4,5.9,2.4,10.1,7.9,12.4,13.9s2,11.3,2.3,17.6c.9,16.8-.1,24.5-5.6,45.7-1.2,4.6-1.8,15.4-.5,20s6,11,10.5,13.4,10.7,2.5,14.1,1.9c6.7-1.3,14.8-6.4,16.1-13s2.1-12.5-.7-21.9c-1.9-6.5-3.8-18.5-.5-25.9,2.2-4.9,2.9-6.7,6.5-10.6,10.8-11.5,11.2-11.7,22.8-23.5,2.7-2.9,15.9-13.9,17-17.8,2.4-7.5-4.1-14.8-8.8-22.9-9.1-15.5-18.3-19.5-32.5-32.5-3.8-3.4-13.3-5.9-19-4.4S205,34,201,37.6Z"/></g></svg>