<?xml version="1.0" encoding="utf-8"?>
<!-- Generator: Adobe Illustrator 25.3.1, SVG Export Plug-In . SVG Version: 6.00 Build 0)  -->
<svg version="1.1" id="Layer_1" xmlns="http://www.w3.org/2000/svg" xmlns:xlink="http://www.w3.org/1999/xlink" x="0px" y="0px"
	 viewBox="0 0 950.1 607.8" style="enable-background:new 0 0 950.1 607.8;" xml:space="preserve">
<style type="text/css">
	.st0{fill:#440E62;stroke:#440E62;stroke-width:100;stroke-miterlimit:10;}
	.st1{fill:#FFFFFF;}
	.st2{fill:none;stroke:#FFFFFF;stroke-width:92.63;stroke-linecap:round;stroke-linejoin:round;}
	.st3{fill:none;stroke:#FDFEFE;stroke-width:92.63;stroke-linecap:round;stroke-linejoin:round;}
</style>
<path class="st0" d="M911.7,634.3H38.4c-44.1,0-79.8-35.7-79.8-79.8V53.3c0-44.1,35.7-79.8,79.8-79.8h873.3
	c44.1,0,79.8,35.7,79.8,79.8v501.2C991.5,598.6,955.8,634.3,911.7,634.3z"/>
<path class="st1" d="M386.1,593.6c-25.6,25.6-69.3,15-80.2-19.4c-5.1-16.3-7.6-33.3-7.5-50.4V288.9H98.5V472
	c0,14.6-4.6,26.3-13.9,35.3s-21.1,13.5-35.7,13.5s-26.4-4.5-35.4-13.5S0,486.6,0,472V48.9c0-14.6,4.5-26.4,13.5-35.4S34.3,0,48.9,0
	c14.6,0,26.5,4.5,35.7,13.5c9.3,9,13.9,20.8,13.9,35.4v141.5h199.9V48.9c0-14.6,4.5-26.4,13.5-35.4S332.6,0,347.2,0
	s26.5,4.5,35.8,13.5s13.8,20.8,13.8,35.4v474.9c0,6.6,0.5,13.2,0.5,19.3c0.1,17,4.2,35.1-8.5,47.8L386.1,593.6z"/>
<path class="st1" d="M950.1,421.2c0,14.6-4.6,26.4-13.5,35.4s-20.8,13.5-35.4,13.5s-25.9-4.7-35.4-13.9s-14.2-20.9-14.2-35v-19
	c0-16-5.8-29.9-17.2-41.6s-25.1-17.5-41.2-17.5s-30.5,5.8-41.9,17.2s-17.2,25.4-17.2,41.9v19c0,14.6-4.6,26.4-13.8,35.4
	c-9.3,9-21.2,13.5-35.8,13.5s-26.4-4.5-35.4-13.5s-13.5-20.8-13.5-35.4v-19c0-47.1,17.8-86.5,53.3-118.2
	c-35.5-31.1-53.2-70.2-53.3-117.4v-19c0-14.6,4.5-26.3,13.5-35.4s20.8-13.4,35.4-13.4c33.1,0,49.6,16.3,49.6,48.8v19
	c0,16.5,5.7,30.4,17.2,41.6s25.4,16.8,41.9,16.8s29.8-5.8,41.2-17.2s17.2-25.2,17.2-41.2v-19c0-14.6,4.6-26.3,13.8-35.4
	s21.2-13.4,35.8-13.4s26.4,4.5,35.4,13.4s13.5,20.8,13.5,35.4v19c0,47.2-17.8,86.3-53.3,117.4c35.5,31.7,53.3,71.1,53.3,118.2V421.2
	z"/>
<polyline class="st2" points="638.8,423.9 477.9,423.9 397.4,284.4 477.9,145 638.8,145 "/>
<line class="st3" x1="397.4" y1="284.4" x2="573.6" y2="284.4"/>
<rect x="479.9" y="98.8" class="st1" width="207.1" height="100.8"/>
<rect x="475.6" y="369.3" class="st1" width="207.1" height="100.8"/>
</svg>
